<svg xmlns="http://www.w3.org/2000/svg" version="1.1" width="500px" height="500px" style="shape-rendering:geometricPrecision; text-rendering:geometricPrecision; image-rendering:optimizeQuality; fill-rule:evenodd; clip-rule:evenodd" xmlns:xlink="http://www.w3.org/1999/xlink">
  <g><path style="opacity:0.995" fill="#fefeff" d="M 499.5,218.5 C 499.5,239.5 499.5,260.5 499.5,281.5C 484.609,372.208 435.942,437.708 353.5,478C 327.201,489.573 299.868,496.74 271.5,499.5C 257.167,499.5 242.833,499.5 228.5,499.5C 131.84,487.652 62.3402,437.985 20,350.5C 9.22457,325.061 2.39124,298.727 -0.5,271.5C -0.5,257.167 -0.5,242.833 -0.5,228.5C 9.12575,146.711 48.1257,83.2113 116.5,38C 184.049,-1.95625 255.382,-10.2896 330.5,13C 413.553,43.2193 467.553,100.719 492.5,185.5C 495.242,196.553 497.576,207.553 499.5,218.5 Z"/></g>
  <g><path style="opacity:1" fill="#12edfe" d="M 257.5,57.5 C 258.465,58.7211 258.298,60.0544 257,61.5C 212,147.5 167,233.5 122,319.5C 123.354,259.452 125.854,199.452 129.5,139.5C 172.571,112.641 215.237,85.308 257.5,57.5 Z"/></g>
  <g><path style="opacity:1" fill="#12edfe" d="M 261.5,61.5 C 262.165,65.1515 262.499,68.9848 262.5,73C 260.324,127.832 258.157,182.666 256,237.5C 213.667,264.5 171.333,291.5 129,318.5C 130.385,313.713 132.385,309.046 135,304.5C 177.703,223.761 219.869,142.761 261.5,61.5 Z"/></g>
  <g><path style="opacity:1" fill="#14edfe" d="M 142.5,322.5 C 138.958,322.813 135.625,322.479 132.5,321.5C 174.527,294.98 216.693,268.646 259,242.5C 313.248,265.138 367.415,287.972 421.5,311C 328.569,315.576 235.569,319.409 142.5,322.5 Z"/></g>
  <g><path style="opacity:1" fill="#12edfe" d="M 406.5,316.5 C 411.511,316.334 416.511,316.501 421.5,317C 378.5,344.167 335.5,371.333 292.5,398.5C 237.021,375.258 181.687,351.758 126.5,328C 219.997,324.254 313.331,320.42 406.5,316.5 Z"/></g>
  <g><path style="opacity:1" fill="#acf8fe" d="M 132.5,321.5 C 135.625,322.479 138.958,322.813 142.5,322.5C 138.689,323.645 134.689,323.812 130.5,323C 131.044,322.283 131.711,321.783 132.5,321.5 Z"/></g>
</svg>
